<svg width="51" height="40" viewBox="0 0 51 40" fill="none" xmlns="http://www.w3.org/2000/svg">
<path opacity="0.5" d="M0 24.88C0 19.8133 1.91068 14.9333 5.73203 10.24C9.60721 5.54667 13.913 2.13333 18.6493 0L20.1832 3.2C16.4157 5.33333 13.1864 8 10.4953 11.2C7.858 14.3467 6.53936 17.5467 6.53936 20.8C6.53936 21.44 6.72774 21.92 7.10449 22.24C7.53507 22.56 8.07329 22.72 8.71915 22.72C12.2176 22.3467 14.1013 22.16 14.3705 22.16C16.1466 22.16 18.0573 22.8 20.1025 24.08C22.2015 25.36 23.2511 27.5467 23.2511 30.64C23.2511 33.2533 22.3899 35.4667 20.6676 37.28C18.9453 39.0933 16.4964 40 13.3209 40C9.60721 40 6.45863 38.5867 3.87518 35.76C1.29173 32.88 0 29.2533 0 24.88ZM27.7489 25.52C27.7489 19.8133 29.6865 14.6667 33.5617 10.08C37.4907 5.44 41.7695 2.08 46.3982 0L47.9322 3.2C44.1646 5.33333 40.9353 7.97333 38.2442 11.12C35.6069 14.2133 34.2883 17.3867 34.2883 20.64C34.2883 21.2267 34.4498 21.7333 34.7727 22.16C35.0956 22.5333 35.6608 22.72 36.4681 22.72C39.9127 22.3467 41.7965 22.16 42.1194 22.16C44.1108 22.16 46.0753 22.88 48.0129 24.32C50.0043 25.7067 51 27.7867 51 30.56C51 32.7467 50.2196 34.88 48.6587 36.96C47.1517 38.9867 44.5952 40 40.9891 40C37.1139 40 33.9384 38.5333 31.4626 35.6C28.9868 32.6133 27.7489 29.2533 27.7489 25.52Z" fill="#494C68"/>
</svg>
