<svg width="27" height="30" viewBox="0 0 27 30" fill="none" xmlns="http://www.w3.org/2000/svg">
<path d="M5.05 1.72095L1 7.12095V26.0209C1 26.737 1.28446 27.4238 1.79081 27.9301C2.29716 28.4365 2.98392 28.7209 3.7 28.7209H22.6C23.3161 28.7209 24.0028 28.4365 24.5092 27.9301C25.0155 27.4238 25.3 26.737 25.3 26.0209V7.12095L21.25 1.72095H5.05Z" stroke="white" stroke-width="2" stroke-linecap="round" stroke-linejoin="round"/>
<path d="M1 7.12097H25.3" stroke="white" stroke-width="2" stroke-linecap="round" stroke-linejoin="round"/>
<path d="M18.55 12.5209C18.55 13.9531 17.9811 15.3266 16.9684 16.3393C15.9557 17.352 14.5822 17.9209 13.15 17.9209C11.7178 17.9209 10.3443 17.352 9.33162 16.3393C8.31893 15.3266 7.75 13.9531 7.75 12.5209" stroke="white" stroke-width="2" stroke-linecap="round" stroke-linejoin="round"/>
</svg>
