<svg width="148" height="45" viewBox="0 0 148 45" fill="none" xmlns="http://www.w3.org/2000/svg">
<rect y="0.858643" width="148" height="44" rx="22" fill="black"/>
<path d="M22.4448 41.9836C22.1402 41.9836 21.8428 41.9797 21.5405 41.9729C20.9143 41.9648 20.2896 41.9103 19.6714 41.8098C19.095 41.7106 18.5366 41.5259 18.0147 41.2619C17.4975 41.0002 17.0258 40.6569 16.6177 40.2453C16.2036 39.8386 15.8589 39.3669 15.5972 38.8488C15.3325 38.3274 15.1494 37.7685 15.0542 37.1916C14.9513 36.5718 14.8956 35.945 14.8877 35.3166C14.8813 35.1057 14.873 34.4035 14.873 34.4035V11.303C14.873 11.303 14.8819 10.6116 14.8877 10.4084C14.8953 9.78112 14.9507 9.1553 15.0532 8.53637C15.1487 7.95789 15.3319 7.39739 15.5967 6.87427C15.8575 6.35659 16.2003 5.8845 16.6118 5.47632C17.0229 5.06426 17.4961 4.71925 18.0142 4.45385C18.5349 4.19074 19.0923 4.00738 19.6675 3.90991C20.2877 3.80848 20.9146 3.75364 21.543 3.74585L22.4453 3.73364H125.214L126.127 3.74634C126.75 3.75374 127.371 3.80809 127.985 3.90893C128.566 4.00762 129.13 4.19226 129.656 4.45678C130.694 4.99163 131.539 5.83781 132.071 6.87671C132.332 7.39622 132.512 7.95215 132.606 8.52563C132.71 9.14963 132.768 9.78038 132.78 10.4128C132.783 10.696 132.783 11.0002 132.783 11.303C132.791 11.678 132.791 12.0349 132.791 12.3948V33.3234C132.791 33.6867 132.791 34.0412 132.783 34.3986C132.783 34.7238 132.783 35.0217 132.779 35.3283C132.768 35.9495 132.71 36.569 132.608 37.1818C132.515 37.7629 132.333 38.3262 132.068 38.8518C131.805 39.3643 131.462 39.8319 131.053 40.2375C130.644 40.6513 130.172 40.9966 129.653 41.26C129.128 41.526 128.566 41.7114 127.985 41.8098C127.367 41.9108 126.742 41.9653 126.116 41.9729C125.823 41.9797 125.517 41.9836 125.219 41.9836L124.135 41.9856L22.4448 41.9836Z" fill="black"/>
<path d="M38.7689 23.1592C38.7796 22.3246 39.0013 21.5062 39.4134 20.7802C39.8254 20.0543 40.4144 19.4443 41.1254 19.0072C40.6737 18.362 40.0778 17.8311 39.3849 17.4565C38.6921 17.082 37.9215 16.8741 37.1343 16.8495C35.455 16.6732 33.8271 17.8543 32.9714 17.8543C32.0991 17.8543 30.7816 16.867 29.3629 16.8962C28.4452 16.9258 27.5509 17.1927 26.767 17.6707C25.9831 18.1488 25.3364 18.8217 24.89 19.624C22.956 22.9725 24.3986 27.8935 26.2512 30.6001C27.1781 31.9255 28.2613 33.4059 29.6788 33.3534C31.0659 33.2959 31.5839 32.4689 33.2582 32.4689C34.917 32.4689 35.403 33.3534 36.8492 33.32C38.3376 33.2959 39.2753 31.9888 40.1697 30.6509C40.8357 29.7065 41.3481 28.6628 41.6881 27.5584C40.8234 27.1927 40.0855 26.5805 39.5664 25.7982C39.0473 25.0159 38.7699 24.0981 38.7689 23.1592Z" fill="white"/>
<path d="M36.0373 15.0695C36.8488 14.0953 37.2486 12.8431 37.1518 11.5789C35.9119 11.7091 34.7667 12.3016 33.9442 13.2385C33.5421 13.6961 33.2341 14.2286 33.0378 14.8053C32.8416 15.3821 32.7609 15.9919 32.8005 16.5999C33.4206 16.6062 34.0341 16.4718 34.5948 16.2067C35.1555 15.9417 35.6487 15.5528 36.0373 15.0695Z" fill="white"/>
<path d="M56.3023 29.9982H51.5689L50.4322 33.3546H48.4273L52.9107 20.9366H54.9937L59.4771 33.3546H57.438L56.3023 29.9982ZM52.0591 28.4494H55.8111L53.9615 23.0021H53.9097L52.0591 28.4494Z" fill="white"/>
<path d="M69.1597 28.8283C69.1597 31.6418 67.6538 33.4494 65.3814 33.4494C64.8057 33.4795 64.2332 33.3469 63.7294 33.0668C63.2256 32.7867 62.8109 32.3703 62.5327 31.8654H62.4897V36.3498H60.6313V24.301H62.4302V25.8068H62.4644C62.7553 25.3044 63.1771 24.8902 63.6847 24.6083C64.1923 24.3265 64.7669 24.1875 65.3472 24.2063C67.645 24.2063 69.1597 26.0227 69.1597 28.8283ZM67.2495 28.8283C67.2495 26.9953 66.3023 25.7902 64.857 25.7902C63.437 25.7902 62.482 27.0207 62.482 28.8283C62.482 30.6526 63.437 31.8742 64.857 31.8742C66.3023 31.8742 67.2495 30.6779 67.2495 28.8283Z" fill="white"/>
<path d="M79.1245 28.8283C79.1245 31.6418 77.6187 33.4494 75.3462 33.4494C74.7706 33.4795 74.1981 33.3469 73.6943 33.0668C73.1905 32.7867 72.7758 32.3703 72.4976 31.8654H72.4546V36.3498H70.5962V24.301H72.395V25.8068H72.4292C72.7201 25.3044 73.1419 24.8902 73.6495 24.6083C74.1571 24.3265 74.7317 24.1875 75.312 24.2063C77.6099 24.2063 79.1245 26.0227 79.1245 28.8283ZM77.2144 28.8283C77.2144 26.9953 76.2671 25.7902 74.8218 25.7902C73.4019 25.7902 72.4468 27.0207 72.4468 28.8283C72.4468 30.6525 73.4019 31.8742 74.8218 31.8742C76.2671 31.8742 77.2144 30.6779 77.2144 28.8283H77.2144Z" fill="white"/>
<path d="M85.7105 29.8947C85.8482 31.1262 87.0445 31.9347 88.6792 31.9347C90.2456 31.9347 91.3726 31.1261 91.3726 30.0158C91.3726 29.0519 90.6929 28.4748 89.0835 28.0792L87.4742 27.6915C85.1939 27.1408 84.1353 26.0743 84.1353 24.3439C84.1353 22.2013 86.0025 20.7296 88.6538 20.7296C91.2778 20.7296 93.0767 22.2013 93.1372 24.3439H91.2612C91.1489 23.1046 90.1245 22.3566 88.6274 22.3566C87.1304 22.3566 86.106 23.1134 86.106 24.215C86.106 25.0929 86.7603 25.6095 88.3608 26.005L89.729 26.3409C92.2769 26.9435 93.3355 27.9669 93.3355 29.7833C93.3355 32.1065 91.4849 33.5616 88.5415 33.5616C85.7876 33.5616 83.9282 32.1407 83.8081 29.8946L85.7105 29.8947Z" fill="white"/>
<path d="M97.3462 22.1583V24.3009H99.0679V25.7726H97.3462V30.7638C97.3462 31.5392 97.6909 31.9005 98.4478 31.9005C98.6522 31.897 98.8562 31.8826 99.0591 31.8575V33.3204C98.7188 33.384 98.373 33.4128 98.0269 33.4063C96.1939 33.4063 95.479 32.7179 95.479 30.962V25.7726H94.1626V24.3009H95.479V22.1583H97.3462Z" fill="white"/>
<path d="M100.065 28.8282C100.065 25.9796 101.743 24.1896 104.359 24.1896C106.984 24.1896 108.654 25.9796 108.654 28.8282C108.654 31.6847 106.993 33.4669 104.359 33.4669C101.726 33.4669 100.065 31.6847 100.065 28.8282ZM106.76 28.8282C106.76 26.8741 105.865 25.7208 104.359 25.7208C102.853 25.7208 101.959 26.8829 101.959 28.8282C101.959 30.7902 102.853 31.9347 104.359 31.9347C105.865 31.9347 106.76 30.7902 106.76 28.8282H106.76Z" fill="white"/>
<path d="M110.186 24.3009H111.959V25.8419H112.002C112.121 25.3606 112.403 24.9353 112.8 24.6374C113.197 24.3395 113.684 24.1872 114.179 24.2062C114.393 24.2054 114.607 24.2287 114.816 24.2755V26.0138C114.546 25.9312 114.264 25.8932 113.981 25.9015C113.711 25.8905 113.442 25.9381 113.192 26.041C112.942 26.1439 112.718 26.2996 112.534 26.4975C112.35 26.6954 112.211 26.9308 112.126 27.1875C112.042 27.4441 112.014 27.716 112.044 27.9845V33.3546H110.186L110.186 24.3009Z" fill="white"/>
<path d="M123.384 30.6954C123.134 32.339 121.534 33.4669 119.486 33.4669C116.852 33.4669 115.217 31.7023 115.217 28.8712C115.217 26.0314 116.861 24.1896 119.408 24.1896C121.913 24.1896 123.488 25.9103 123.488 28.6554V29.2921H117.093V29.4044C117.064 29.7376 117.105 30.0733 117.216 30.3891C117.326 30.705 117.502 30.9937 117.732 31.2363C117.963 31.4788 118.242 31.6696 118.552 31.7959C118.861 31.9222 119.195 31.9812 119.529 31.9689C119.968 32.01 120.409 31.9083 120.785 31.6789C121.162 31.4494 121.455 31.1045 121.62 30.6954L123.384 30.6954ZM117.102 27.9933H121.628C121.645 27.6937 121.6 27.3939 121.495 27.1127C121.39 26.8315 121.229 26.5749 121.02 26.3592C120.812 26.1434 120.561 25.9731 120.283 25.8588C120.006 25.7446 119.708 25.689 119.408 25.6954C119.105 25.6936 118.805 25.7518 118.525 25.8665C118.245 25.9813 117.99 26.1503 117.776 26.364C117.562 26.5776 117.392 26.8316 117.276 27.1112C117.16 27.3909 117.101 27.6907 117.102 27.9933V27.9933Z" fill="white"/>
<path d="M50.7383 14.112H51.5362C51.6735 14.1291 51.8129 14.1176 51.9456 14.0782C52.0782 14.0387 52.2013 13.9722 52.307 13.8829C52.4127 13.7935 52.4987 13.6832 52.5597 13.5589C52.6206 13.4347 52.6552 13.2991 52.6612 13.1609C52.6612 12.6106 52.2471 12.2551 51.5449 12.2551C51.4042 12.2354 51.261 12.2442 51.1237 12.2808C50.9864 12.3174 50.8579 12.3811 50.7456 12.4682C50.6334 12.5554 50.5398 12.6641 50.4702 12.788C50.4007 12.9119 50.3567 13.0485 50.3408 13.1897H49.4648C49.4799 12.9334 49.5476 12.6829 49.6637 12.4539C49.7797 12.2249 49.9417 12.0222 50.1395 11.8585C50.3373 11.6948 50.5666 11.5736 50.8133 11.5024C51.06 11.4311 51.3186 11.4115 51.5732 11.4446C52.748 11.4446 53.5752 12.1023 53.5752 13.049C53.578 13.3662 53.4719 13.6747 53.2746 13.9231C53.0773 14.1715 52.8008 14.3447 52.4912 14.4138V14.4841C52.8582 14.5004 53.2039 14.6613 53.4526 14.9317C53.7013 15.2021 53.8328 15.5599 53.8184 15.927C53.7912 16.1909 53.7117 16.4467 53.5844 16.6794C53.4571 16.9122 53.2846 17.1172 53.077 17.2824C52.8695 17.4476 52.631 17.5697 52.3756 17.6416C52.1203 17.7134 51.8531 17.7336 51.5899 17.7009C51.3261 17.7369 51.0577 17.7194 50.8008 17.6494C50.5439 17.5794 50.3037 17.4585 50.0946 17.2937C49.8854 17.1289 49.7116 16.9237 49.5835 16.6904C49.4553 16.457 49.3755 16.2002 49.3487 15.9353H50.2383C50.292 16.5061 50.8164 16.8743 51.5899 16.8743C52.3633 16.8743 52.8682 16.4607 52.8682 15.8777C52.8682 15.2864 52.3926 14.9221 51.5616 14.9221H50.7383V14.112Z" fill="white"/>
<path d="M54.8291 16.283C54.8291 15.4724 55.4336 15.0051 56.5039 14.9387L57.7237 14.8684V14.4797C57.7237 14.0041 57.4102 13.7356 56.8018 13.7356C56.3057 13.7356 55.9629 13.9177 55.8633 14.2361H55.003C55.0938 13.4626 55.8223 12.9666 56.8438 12.9666C57.9727 12.9666 58.6094 13.5286 58.6094 14.4797V17.5564H57.753V16.9236H57.6827C57.5399 17.1506 57.3395 17.3356 57.1019 17.4598C56.8643 17.584 56.598 17.643 56.3301 17.6306C56.1411 17.6502 55.95 17.6301 55.7693 17.5714C55.5885 17.5127 55.422 17.4168 55.2806 17.2898C55.1392 17.1628 55.026 17.0076 54.9482 16.8342C54.8704 16.6608 54.8299 16.473 54.8291 16.283ZM57.7237 15.8982V15.5217L56.624 15.592C56.0039 15.6335 55.7226 15.8445 55.7226 16.2414C55.7226 16.6467 56.0742 16.8826 56.5576 16.8826C56.6993 16.8969 56.8424 16.8826 56.9784 16.8405C57.1144 16.7984 57.2405 16.7294 57.3493 16.6376C57.4581 16.5457 57.5473 16.4329 57.6116 16.3059C57.6759 16.1789 57.714 16.0402 57.7237 15.8982Z" fill="white"/>
<path d="M60.9678 13.8015V17.5564H60.0791V13.0535H63.044V13.8015L60.9678 13.8015Z" fill="white"/>
<path d="M68.4297 15.3029C68.4297 16.7336 67.7061 17.6306 66.5694 17.6306C66.2903 17.6496 66.0117 17.5886 65.7662 17.4546C65.5207 17.3206 65.3185 17.1192 65.1836 16.8742H65.1133V19.0534H64.2246V13.0534H65.0801V13.7976H65.1465C65.2839 13.544 65.4886 13.3334 65.7381 13.1889C65.9877 13.0444 66.2723 12.9716 66.5606 12.9787C67.7061 12.9787 68.4297 13.8718 68.4297 15.3029ZM67.5157 15.3029C67.5157 14.3518 67.0655 13.7771 66.3125 13.7771C65.5645 13.7771 65.0967 14.364 65.0967 15.3068C65.0967 16.2453 65.5645 16.8327 66.3086 16.8327C67.0655 16.8327 67.5157 16.258 67.5157 15.3029Z" fill="white"/>
<path d="M69.6133 19.1692V18.4041C69.7095 18.4163 69.8064 18.4218 69.9033 18.4207C70.0927 18.4347 70.2805 18.3783 70.4308 18.2623C70.5811 18.1463 70.6833 17.9789 70.7178 17.7922L70.7842 17.573L69.1543 13.0535H70.1221L71.251 16.6301H71.3213L72.4463 13.0535H73.3887L71.71 17.7424C71.3252 18.8381 70.8995 19.1897 69.9815 19.1897C69.9073 19.1897 69.6963 19.1814 69.6133 19.1692Z" fill="white"/>
<path d="M74.0811 16.2785H74.9659C75.0528 16.6755 75.4249 16.8825 75.9453 16.8825C76.5371 16.8825 76.9004 16.6218 76.9004 16.2165C76.9004 15.7825 76.5743 15.5754 75.9453 15.5754H75.2715V14.885H75.9336C76.4707 14.885 76.7442 14.6785 76.7442 14.302C76.7442 13.9714 76.4795 13.719 75.9336 13.719C75.4366 13.719 75.0733 13.9299 75.0156 14.2854H74.1592C74.2232 13.877 74.445 13.5099 74.7768 13.2633C75.1087 13.0167 75.524 12.9101 75.9336 12.9666C77.0039 12.9666 77.6162 13.4505 77.6162 14.2112C77.6212 14.423 77.5534 14.6302 77.424 14.798C77.2946 14.9658 77.1115 15.0841 76.9053 15.1331V15.2034C77.1507 15.235 77.376 15.3557 77.5384 15.5425C77.7008 15.7292 77.7889 15.9691 77.7862 16.2166C77.7862 17.0726 77.0576 17.6389 75.9453 17.6389C74.9619 17.6389 74.1631 17.1882 74.0811 16.2785Z" fill="white"/>
<path d="M79.0659 17.5564V13.0535H79.9468V16.1506H80.0171L82.0923 13.0535H82.9732V17.5564H82.0923V14.4426H82.0259L79.9468 17.5564L79.0659 17.5564Z" fill="white"/>
<path d="M87.8257 13.8015H86.4077V17.5563H85.5181V13.8015H84.1001V13.0535H87.8257V13.8015Z" fill="white"/>
<path d="M92.6128 16.3405C92.4917 16.7521 92.2299 17.108 91.8731 17.3461C91.5163 17.5842 91.0871 17.6894 90.6607 17.6433C90.364 17.6511 90.0692 17.5943 89.7967 17.4767C89.5242 17.3592 89.2805 17.1838 89.0826 16.9627C88.8847 16.7415 88.7373 16.48 88.6506 16.1961C88.5639 15.9123 88.54 15.613 88.5806 15.319C88.5411 15.0242 88.5654 14.7242 88.6519 14.4396C88.7384 14.1549 88.885 13.8921 89.0819 13.669C89.2787 13.446 89.5212 13.2678 89.7929 13.1466C90.0647 13.0254 90.3592 12.964 90.6567 12.9665C91.9097 12.9665 92.6665 13.8225 92.6665 15.2365V15.5466H89.4868V15.5964C89.4728 15.7617 89.4934 15.9281 89.5475 16.0849C89.6015 16.2417 89.6878 16.3855 89.8007 16.507C89.9137 16.6285 90.0508 16.725 90.2033 16.7904C90.3557 16.8557 90.5202 16.8884 90.6861 16.8864C90.8985 16.9118 91.1137 16.8735 91.3042 16.7763C91.4948 16.6791 91.6522 16.5274 91.7564 16.3405L92.6128 16.3405ZM89.4868 14.8894H91.7602C91.7715 14.7383 91.751 14.5866 91.7001 14.4439C91.6492 14.3013 91.5691 14.1708 91.4648 14.061C91.3605 13.9511 91.2344 13.8643 91.0945 13.8061C90.9547 13.7478 90.8043 13.7195 90.6528 13.7229C90.4991 13.7208 90.3465 13.7495 90.204 13.8074C90.0616 13.8653 89.9322 13.9512 89.8235 14.0599C89.7148 14.1686 89.629 14.2981 89.5712 14.4405C89.5134 14.583 89.4847 14.7356 89.4868 14.8894H89.4868Z" fill="white"/>
<path d="M96.3804 13.0535H98.4107C99.2915 13.0535 99.8081 13.4998 99.8081 14.1985C99.8095 14.4202 99.7347 14.6356 99.5962 14.8088C99.4577 14.9819 99.264 15.1023 99.0474 15.1496V15.2199C99.3104 15.2366 99.5569 15.3535 99.7361 15.5467C99.9153 15.7399 100.013 15.9946 100.01 16.258C100.01 17.0437 99.4195 17.5564 98.4312 17.5564H96.3804V13.0535ZM97.2613 13.7356V14.9016H98.1421C98.6792 14.9016 98.9361 14.6951 98.9361 14.3142C98.9361 13.9631 98.7124 13.7356 98.2408 13.7356L97.2613 13.7356ZM97.2613 15.5549V16.8743H98.315C98.8404 16.8743 99.1217 16.6423 99.1217 16.2166C99.1217 15.7659 98.8033 15.5549 98.2037 15.5549L97.2613 15.5549Z" fill="white"/>
</svg>
