<svg width="162" height="49" viewBox="0 0 162 49" fill="none" xmlns="http://www.w3.org/2000/svg">
<rect x="0.0454102" y="0.220947" width="161.455" height="48" rx="24" fill="white"/>
<path d="M42.3387 24.549C42.3504 23.6384 42.5923 22.7457 43.0418 21.9537C43.4912 21.1618 44.1337 20.4964 44.9095 20.0195C44.4167 19.3156 43.7666 18.7364 43.0107 18.3278C42.2549 17.9192 41.4143 17.6925 40.5555 17.6656C38.7236 17.4733 36.9476 18.7618 36.0141 18.7618C35.0626 18.7618 33.6253 17.6847 32.0776 17.7166C31.0765 17.7489 30.1008 18.04 29.2457 18.5615C28.3906 19.083 27.6851 19.8172 27.198 20.6924C25.0882 24.3452 26.662 29.7137 28.683 32.6663C29.6942 34.1122 30.8759 35.7272 32.4222 35.6699C33.9354 35.6072 34.5005 34.705 36.327 34.705C38.1366 34.705 38.6668 35.6699 40.2445 35.6335C41.8682 35.6071 42.8912 34.1812 43.8669 32.7217C44.5934 31.6915 45.1524 30.5529 45.5233 29.3481C44.58 28.9491 43.775 28.2813 43.2087 27.4278C42.6424 26.5744 42.3398 25.5732 42.3387 24.549Z" fill="black"/>
<path d="M39.3587 15.7238C40.244 14.661 40.6802 13.295 40.5746 11.9158C39.222 12.0579 37.9726 12.7043 37.0754 13.7263C36.6367 14.2256 36.3007 14.8064 36.0866 15.4356C35.8725 16.0648 35.7845 16.73 35.8277 17.3933C36.5042 17.4002 37.1735 17.2536 37.7851 16.9644C38.3967 16.6752 38.9348 16.251 39.3587 15.7238Z" fill="black"/>
<path d="M61.4659 32.0097H56.3022L55.0621 35.6713H52.875L57.766 22.1244H60.0383L64.9293 35.6713H62.7049L61.4659 32.0097ZM56.837 30.3201H60.9301L58.9123 24.3776H58.8559L56.837 30.3201Z" fill="black"/>
<path d="M75.4921 30.7334C75.4921 33.8027 73.8494 35.7746 71.3703 35.7746C70.7423 35.8075 70.1178 35.6628 69.5682 35.3572C69.0186 35.0516 68.5662 34.5974 68.2627 34.0466H68.2158V38.9387H66.1885V25.7945H68.1509V27.4372H68.1882C68.5056 26.8891 68.9656 26.4373 69.5194 26.1298C70.0732 25.8223 70.7 25.6707 71.333 25.6912C73.8397 25.6912 75.4921 27.6727 75.4921 30.7334ZM73.4083 30.7334C73.4083 28.7338 72.3749 27.4191 70.7982 27.4191C69.2492 27.4191 68.2073 28.7615 68.2073 30.7334C68.2073 32.7235 69.2492 34.0562 70.7982 34.0562C72.3749 34.0562 73.4083 32.7512 73.4083 30.7334Z" fill="black"/>
<path d="M86.3629 30.7334C86.3629 33.8027 84.7201 35.7746 82.2411 35.7746C81.6131 35.8075 80.9885 35.6628 80.4389 35.3572C79.8893 35.0516 79.4369 34.5974 79.1335 34.0466H79.0865V38.9387H77.0592V25.7945H79.0216V27.4372H79.0588C79.3762 26.8891 79.8363 26.4373 80.3901 26.1298C80.9439 25.8223 81.5707 25.6707 82.2037 25.6912C84.7105 25.6912 86.3629 27.6727 86.3629 30.7334ZM84.279 30.7334C84.279 28.7338 83.2457 27.4191 81.669 27.4191C80.12 27.4191 79.078 28.7615 79.078 30.7334C79.078 32.7235 80.12 34.0562 81.669 34.0562C83.2457 34.0562 84.2791 32.7512 84.2791 30.7334H84.279Z" fill="black"/>
<path d="M93.5476 31.8967C93.6978 33.2401 95.0029 34.1222 96.7862 34.1222C98.4951 34.1222 99.7245 33.2401 99.7245 32.0288C99.7245 30.9773 98.983 30.3477 97.2273 29.9162L95.4716 29.4933C92.9841 28.8924 91.8292 27.7291 91.8292 25.8413C91.8292 23.5039 93.8662 21.8985 96.7585 21.8985C99.6211 21.8985 101.583 23.5039 101.65 25.8413H99.603C99.4805 24.4894 98.3629 23.6733 96.7298 23.6733C95.0966 23.6733 93.979 24.499 93.979 25.7007C93.979 26.6584 94.6928 27.222 96.4389 27.6534L97.9314 28.0199C100.711 28.6772 101.866 29.7937 101.866 31.7752C101.866 34.3097 99.8469 35.897 96.636 35.897C93.6317 35.897 91.6033 34.3469 91.4723 31.8966L93.5476 31.8967Z" fill="black"/>
<path d="M106.241 23.4571V25.7945H108.119V27.4H106.241V32.8449C106.241 33.6908 106.617 34.085 107.443 34.085C107.666 34.0811 107.888 34.0654 108.11 34.0381V35.6339C107.738 35.7033 107.361 35.7347 106.984 35.7277C104.984 35.7277 104.204 34.9766 104.204 33.0611V27.4H102.768V25.7945H104.204V23.4571H106.241Z" fill="black"/>
<path d="M109.207 30.7334C109.207 27.6258 111.037 25.673 113.891 25.673C116.755 25.673 118.577 27.6258 118.577 30.7334C118.577 33.8495 116.765 35.7938 113.891 35.7938C111.019 35.7938 109.207 33.8495 109.207 30.7334ZM116.511 30.7334C116.511 28.6017 115.534 27.3435 113.891 27.3435C112.249 27.3435 111.273 28.6112 111.273 30.7334C111.273 32.8737 112.249 34.1223 113.891 34.1223C115.534 34.1223 116.511 32.8737 116.511 30.7334H116.511Z" fill="black"/>
<path d="M120.248 25.7945H122.182V27.4756H122.229C122.359 26.9505 122.667 26.4865 123.1 26.1616C123.532 25.8366 124.064 25.6705 124.604 25.6911C124.838 25.6903 125.071 25.7157 125.299 25.7668V27.6631C125.004 27.5729 124.696 27.5316 124.388 27.5405C124.094 27.5286 123.8 27.5805 123.527 27.6928C123.255 27.805 123.01 27.9749 122.809 28.1908C122.608 28.4067 122.457 28.6634 122.365 28.9434C122.273 29.2234 122.242 29.52 122.276 29.8129V35.6712H120.248L120.248 25.7945Z" fill="black"/>
<path d="M134.646 32.7703C134.373 34.5633 132.627 35.7938 130.393 35.7938C127.52 35.7938 125.737 33.8687 125.737 30.7803C125.737 27.6823 127.53 25.673 130.308 25.673C133.041 25.673 134.759 27.5502 134.759 30.5448V31.2394H127.783V31.362C127.751 31.7254 127.797 32.0916 127.917 32.4362C128.037 32.7807 128.229 33.0958 128.48 33.3604C128.732 33.625 129.036 33.8331 129.374 33.9709C129.712 34.1086 130.076 34.173 130.44 34.1595C130.919 34.2044 131.4 34.0935 131.811 33.8432C132.222 33.5929 132.541 33.2166 132.721 32.7703L134.646 32.7703ZM127.793 29.8225H132.731C132.749 29.4957 132.699 29.1686 132.585 28.8619C132.471 28.5551 132.295 28.2752 132.067 28.0398C131.84 27.8045 131.566 27.6186 131.263 27.494C130.961 27.3694 130.635 27.3088 130.308 27.3158C129.978 27.3138 129.651 27.3773 129.345 27.5024C129.04 27.6276 128.762 27.812 128.528 28.0451C128.294 28.2781 128.109 28.5552 127.983 28.8603C127.857 29.1654 127.792 29.4924 127.793 29.8225V29.8225Z" fill="black"/>
<path d="M55.3963 14.6792H56.2667C56.4166 14.6979 56.5686 14.6853 56.7134 14.6423C56.8581 14.5992 56.9923 14.5267 57.1076 14.4292C57.2229 14.3317 57.3168 14.2114 57.3833 14.0759C57.4498 13.9403 57.4875 13.7924 57.494 13.6416C57.494 13.0413 57.0423 12.6535 56.2763 12.6535C56.1228 12.632 55.9666 12.6416 55.8168 12.6815C55.667 12.7214 55.5268 12.791 55.4043 12.886C55.2819 12.981 55.1797 13.0996 55.1039 13.2348C55.0281 13.37 54.9801 13.519 54.9627 13.673H54.0071C54.0236 13.3934 54.0974 13.1202 54.224 12.8704C54.3506 12.6205 54.5273 12.3994 54.7431 12.2209C54.9588 12.0423 55.2091 11.91 55.4781 11.8323C55.7472 11.7546 56.0294 11.7331 56.3072 11.7692C57.5888 11.7692 58.4912 12.4867 58.4912 13.5196C58.4942 13.8656 58.3784 14.2022 58.1632 14.4731C57.948 14.7441 57.6464 14.933 57.3086 15.0084V15.0851C57.709 15.1029 58.086 15.2784 58.3574 15.5734C58.6287 15.8683 58.7721 16.2587 58.7564 16.6592C58.7268 16.947 58.64 17.2261 58.5011 17.48C58.3623 17.7339 58.1741 17.9575 57.9477 18.1378C57.7212 18.318 57.4611 18.4512 57.1825 18.5296C56.9039 18.608 56.6125 18.63 56.3253 18.5944C56.0375 18.6336 55.7448 18.6145 55.4645 18.5382C55.1843 18.4618 54.9223 18.3299 54.6941 18.1501C54.4659 17.9704 54.2763 17.7465 54.1365 17.4919C53.9967 17.2373 53.9096 16.9572 53.8804 16.6682H54.8509C54.9095 17.2909 55.4816 17.6926 56.3253 17.6926C57.1691 17.6926 57.7199 17.2414 57.7199 16.6054C57.7199 15.9603 57.201 15.563 56.2944 15.563H55.3963V14.6792Z" fill="black"/>
<path d="M59.859 17.0475C59.859 16.1633 60.5185 15.6535 61.6861 15.581L63.0167 15.5043V15.0803C63.0167 14.5615 62.6747 14.2685 62.011 14.2685C61.4698 14.2685 61.0959 14.4672 60.9872 14.8145H60.0486C60.1477 13.9708 60.9425 13.4296 62.0568 13.4296C63.2883 13.4296 63.9829 14.0427 63.9829 15.0803V18.4367H63.0486V17.7464H62.9719C62.8162 17.994 62.5976 18.1959 62.3384 18.3314C62.0792 18.4669 61.7886 18.5311 61.4964 18.5176C61.2902 18.5391 61.0818 18.5171 60.8846 18.453C60.6874 18.389 60.5058 18.2844 60.3515 18.1458C60.1973 18.0073 60.0737 17.838 59.9889 17.6489C59.9041 17.4597 59.8598 17.2548 59.859 17.0475ZM63.0167 16.6277V16.2171L61.8171 16.2938C61.1406 16.339 60.8337 16.5691 60.8337 17.0022C60.8337 17.4443 61.2173 17.7016 61.7447 17.7016C61.8992 17.7172 62.0553 17.7016 62.2036 17.6557C62.352 17.6098 62.4896 17.5345 62.6083 17.4343C62.727 17.3341 62.8243 17.2111 62.8945 17.0725C62.9646 16.934 63.0062 16.7827 63.0167 16.6277Z" fill="black"/>
<path d="M66.5558 14.3404V18.4367H65.5863V13.5244H68.8207V14.3404L66.5558 14.3404Z" fill="black"/>
<path d="M74.696 15.9784C74.696 17.5391 73.9066 18.5177 72.6665 18.5177C72.3621 18.5384 72.0581 18.4718 71.7903 18.3257C71.5225 18.1795 71.302 17.9598 71.1548 17.6925H71.0781V20.0699H70.1086V13.5244H71.0419V14.3362H71.1143C71.2642 14.0596 71.4875 13.8298 71.7597 13.6722C72.032 13.5145 72.3425 13.4352 72.6569 13.4429C73.9066 13.4429 74.696 14.4171 74.696 15.9784ZM73.6989 15.9784C73.6989 14.9408 73.2077 14.3138 72.3864 14.3138C71.5704 14.3138 71.06 14.9541 71.06 15.9827C71.06 17.0065 71.5703 17.6473 72.3821 17.6473C73.2077 17.6473 73.6989 17.0203 73.6989 15.9784Z" fill="black"/>
<path d="M75.9872 20.1961V19.3614C76.0921 19.3747 76.1978 19.3808 76.3036 19.3795C76.5101 19.3948 76.715 19.3333 76.879 19.2068C77.043 19.0802 77.1545 18.8976 77.1921 18.694L77.2645 18.4548L75.4865 13.5244H76.5422L77.7738 17.4262H77.8505L79.0777 13.5244H80.1058L78.2745 18.6396C77.8548 19.8349 77.3903 20.2185 76.3888 20.2185C76.3079 20.2185 76.0778 20.2094 75.9872 20.1961Z" fill="black"/>
<path d="M80.8612 17.0427H81.8264C81.9212 17.4758 82.3271 17.7016 82.8949 17.7016C83.5405 17.7016 83.9368 17.4171 83.9368 16.975C83.9368 16.5015 83.581 16.2757 82.8949 16.2757H82.1599V15.5225H82.8822C83.4681 15.5225 83.7664 15.2971 83.7664 14.8865C83.7664 14.5258 83.4777 14.2505 82.8822 14.2505C82.3399 14.2505 81.9436 14.4806 81.8807 14.8684H80.9464C81.0163 14.4228 81.2582 14.0224 81.6202 13.7533C81.9822 13.4843 82.4353 13.368 82.8822 13.4296C84.0498 13.4296 84.7177 13.9575 84.7177 14.7874C84.7232 15.0185 84.6491 15.2445 84.508 15.4275C84.3668 15.6106 84.1671 15.7396 83.9422 15.7931V15.8698C84.2099 15.9043 84.4557 16.0359 84.6328 16.2397C84.81 16.4434 84.9061 16.7051 84.9031 16.9751C84.9031 17.9089 84.1084 18.5267 82.8949 18.5267C81.8221 18.5267 80.9507 18.035 80.8612 17.0427Z" fill="black"/>
<path d="M86.2992 18.4367V13.5244H87.2601V16.9031H87.3368L89.6007 13.5244H90.5616V18.4367H89.6007V15.0399H89.5282L87.2601 18.4367L86.2992 18.4367Z" fill="black"/>
<path d="M95.8554 14.3404H94.3084V18.4367H93.3379V14.3404H91.791V13.5244H95.8554V14.3404Z" fill="black"/>
<path d="M101.078 17.1103C100.946 17.5592 100.66 17.9475 100.271 18.2073C99.8814 18.467 99.4133 18.5818 98.948 18.5315C98.6244 18.54 98.3028 18.478 98.0055 18.3498C97.7082 18.2216 97.4424 18.0302 97.2265 17.789C97.0106 17.5478 96.8498 17.2624 96.7552 16.9528C96.6606 16.6432 96.6346 16.3167 96.6788 15.996C96.6358 15.6743 96.6623 15.3471 96.7566 15.0365C96.851 14.726 97.0109 14.4393 97.2257 14.196C97.4405 13.9526 97.705 13.7582 98.0014 13.626C98.2978 13.4938 98.6192 13.4268 98.9438 13.4296C100.311 13.4296 101.136 14.3634 101.136 15.9059V16.2442H97.6675V16.2985C97.6521 16.4788 97.6747 16.6604 97.7336 16.8314C97.7926 17.0025 97.8867 17.1594 98.0099 17.2919C98.1331 17.4244 98.2827 17.5297 98.449 17.601C98.6154 17.6723 98.7948 17.708 98.9757 17.7058C99.2075 17.7335 99.4422 17.6917 99.6501 17.5857C99.858 17.4796 100.03 17.3141 100.143 17.1103L101.078 17.1103ZM97.6675 15.5272H100.148C100.16 15.3624 100.137 15.1969 100.082 15.0413C100.026 14.8856 99.939 14.7433 99.8252 14.6235C99.7115 14.5037 99.5739 14.409 99.4214 14.3454C99.2688 14.2819 99.1047 14.251 98.9395 14.2547C98.7718 14.2524 98.6053 14.2838 98.4499 14.3469C98.2945 14.4101 98.1533 14.5037 98.0348 14.6223C97.9162 14.741 97.8226 14.8822 97.7595 15.0376C97.6964 15.193 97.6651 15.3595 97.6675 15.5272H97.6675Z" fill="black"/>
<path d="M105.188 13.5244H107.403C108.363 13.5244 108.927 14.0112 108.927 14.7735C108.929 15.0153 108.847 15.2504 108.696 15.4393C108.545 15.6281 108.333 15.7594 108.097 15.8111V15.8878C108.384 15.9059 108.653 16.0336 108.848 16.2443C109.044 16.4551 109.151 16.7328 109.148 17.0203C109.148 17.8773 108.503 18.4366 107.425 18.4366H105.188V13.5244ZM106.149 14.2685V15.5405H107.11C107.696 15.5405 107.976 15.3152 107.976 14.8997C107.976 14.5167 107.732 14.2685 107.217 14.2685L106.149 14.2685ZM106.149 16.2533V17.6925H107.298C107.871 17.6925 108.178 17.4395 108.178 16.975C108.178 16.4834 107.831 16.2533 107.177 16.2533L106.149 16.2533Z" fill="black"/>
</svg>
