<svg width="162" height="49" viewBox="0 0 162 49" fill="none" xmlns="http://www.w3.org/2000/svg">
<rect x="0.499939" y="0.220947" width="161.455" height="48" rx="24" fill="white"/>
<path d="M77.0205 13.6842C76.7303 14.1108 76.2138 14.3183 75.6 14.3183C75.1749 14.3183 74.8353 14.2066 74.6119 13.986C74.4918 13.86 74.3989 13.7106 74.3389 13.5471C74.279 13.3836 74.2534 13.2095 74.2636 13.0356V10.8345H73.1028V13.1953C73.1028 13.8888 73.3219 14.4489 73.7848 14.8624C74.2548 15.2768 74.8649 15.4967 75.4912 15.4777C76.0601 15.4968 76.6162 15.3063 77.0539 14.9422L77.0205 15.173V18.2345H78.3264V10.8345H77.0205V13.6842Z" fill="black"/>
<path d="M80.3595 16.0595L80.3581 15.1236V10.8345H79.1973V18.2345H80.39L83.8477 12.7208L83.8404 13.6349V18.2345H85.0012V10.8345H83.6663L80.3595 16.0595Z" fill="black"/>
<path d="M90.2851 14.3792C90.4954 14.2467 90.6758 14.0718 90.8147 13.8656C91.0095 13.576 91.1108 13.2337 91.1049 12.8847C91.1102 12.6044 91.0535 12.3264 90.9388 12.0706C90.8242 11.8147 90.6545 11.5874 90.4418 11.4047C90.0167 11.0233 89.4616 10.8192 88.8907 10.8345H86.1614V18.2345H89.0314C89.6329 18.2443 90.2154 18.0237 90.6594 17.6178C90.8797 17.4229 91.055 17.1825 91.1733 16.9132C91.2915 16.6439 91.3499 16.3521 91.3443 16.058C91.3497 15.6578 91.2193 15.2675 90.9743 14.9509C90.792 14.7095 90.5561 14.5138 90.2851 14.3792ZM89.6176 13.5725C89.5266 13.6739 89.4145 13.754 89.2891 13.8074C89.1638 13.8608 89.0283 13.8861 88.8921 13.8816H87.3222V11.9953H88.9313C89.0605 11.9863 89.19 12.0063 89.3105 12.0537C89.431 12.1012 89.5394 12.1749 89.6278 12.2695C89.7969 12.4439 89.8925 12.6766 89.8948 12.9195C89.8916 13.1651 89.7921 13.3996 89.6176 13.5725ZM89.8222 16.7487C89.729 16.8553 89.6131 16.9398 89.4831 16.996C89.3531 17.0522 89.2122 17.0788 89.0706 17.0737H87.3222V15.0423H89.0314C89.1687 15.0355 89.3059 15.0562 89.435 15.103C89.5642 15.1499 89.6827 15.222 89.7837 15.3153C89.8846 15.4085 89.9659 15.5209 90.0229 15.646C90.0798 15.771 90.1112 15.9062 90.1153 16.0435C90.1122 16.3076 90.0072 16.5602 89.8222 16.7487Z" fill="black"/>
<path d="M94.2347 10.8345L91.4271 18.2345H92.7576L93.457 16.3483H96.2603L96.9495 18.2345H98.2815L95.4739 10.8345H94.2347ZM95.8308 15.1875H93.872L94.8543 12.4756L95.8308 15.1875Z" fill="black"/>
<path d="M99.933 16.0595L99.9446 15.1236V10.8345H98.7838V18.2345H99.9504L103.421 12.7208L103.427 13.6349V18.2345H104.588V10.8345H103.227L99.933 16.0595Z" fill="black"/>
<path d="M101.639 10.5443C101.821 10.5428 102 10.5051 102.167 10.4332C102.334 10.3614 102.485 10.2569 102.611 10.1259C102.737 9.99492 102.836 9.84008 102.901 9.67048C102.966 9.50088 102.997 9.31994 102.991 9.13829V8.94821H101.976V9.13829C101.988 9.24713 101.957 9.35644 101.89 9.443C101.858 9.48254 101.818 9.51405 101.772 9.53498C101.726 9.5559 101.675 9.56565 101.624 9.56343C101.572 9.56636 101.52 9.55728 101.472 9.5369C101.424 9.51653 101.381 9.48539 101.347 9.4459C101.276 9.36012 101.241 9.24962 101.25 9.13829V8.94821H100.234V9.13829C100.229 9.32559 100.263 9.51195 100.336 9.6847C100.408 9.85745 100.517 10.0126 100.655 10.1395C100.917 10.3995 101.27 10.5451 101.639 10.5443Z" fill="black"/>
<path d="M105.17 11.9953H107.201V18.2345H108.507V11.9953H110.393V10.8345H105.17V11.9953Z" fill="black"/>
<path d="M111.117 18.2345H115.615V17.0737H112.423V15.0424H115.325V13.8816H112.423V11.9953H115.615V10.8345H111.117V18.2345Z" fill="black"/>
<path d="M123.606 14.9452C123.422 14.7062 123.186 14.5126 122.916 14.3793C123.126 14.2464 123.307 14.0715 123.446 13.8656C123.64 13.5758 123.741 13.2336 123.736 12.8848C123.741 12.6045 123.685 12.3265 123.57 12.0706C123.455 11.8148 123.286 11.5874 123.073 11.4048C122.648 11.0234 122.093 10.8194 121.522 10.8345H118.809V18.2346H121.663C122.261 18.2427 122.84 18.0222 123.282 17.6179C123.504 17.4242 123.682 17.1843 123.801 16.9148C123.921 16.6453 123.981 16.3529 123.976 16.0581C123.982 15.6559 123.852 15.2633 123.606 14.9452ZM122.249 13.5725C122.158 13.6737 122.045 13.7537 121.92 13.8071C121.795 13.8605 121.659 13.8859 121.523 13.8816H119.969V11.9953H121.565C121.695 11.9864 121.824 12.0063 121.945 12.0538C122.065 12.1012 122.174 12.1749 122.262 12.2696C122.431 12.4439 122.527 12.6767 122.529 12.9196C122.525 13.1656 122.424 13.4002 122.249 13.5725ZM122.453 16.7488C122.36 16.8554 122.244 16.9399 122.114 16.9961C121.984 17.0523 121.843 17.0788 121.702 17.0738H119.969V15.0424H121.663C121.8 15.0354 121.937 15.0559 122.066 15.1027C122.195 15.1495 122.314 15.2217 122.415 15.315C122.516 15.4082 122.597 15.5208 122.654 15.6459C122.71 15.771 122.741 15.9062 122.745 16.0436C122.742 16.3073 122.637 16.5598 122.453 16.7488Z" fill="black"/>
<path d="M58.8194 16.2366C58.239 16.9026 57.5527 17.2261 56.73 17.2261C56.3838 17.2334 56.0397 17.171 55.7182 17.0426C55.3966 16.9142 55.1042 16.7225 54.8582 16.4789C54.3532 15.9826 54.0979 15.3181 54.0979 14.5142C54.0979 13.7104 54.3532 13.0444 54.8582 12.5496C55.1042 12.3059 55.3966 12.1142 55.7182 11.9858C56.0397 11.8575 56.3838 11.7951 56.73 11.8023C57.5309 11.8023 58.1432 12.0809 58.6061 12.657L58.7048 12.7803L59.5579 11.9547L59.4636 11.8502C59.1279 11.4547 58.7075 11.1397 58.2335 10.9287C57.7596 10.7177 57.2442 10.6161 56.7256 10.6314C56.2144 10.6227 55.7068 10.7172 55.2331 10.9095C54.7593 11.1017 54.3293 11.3876 53.9687 11.7501C53.6082 12.1125 53.3245 12.544 53.1348 13.0188C52.9451 13.4935 52.8531 14.0017 52.8645 14.5128C52.8531 15.0239 52.9451 15.5321 53.1348 16.0068C53.3245 16.4815 53.6082 16.913 53.9687 17.2755C54.3293 17.6379 54.7593 17.9238 55.2331 18.1161C55.7068 18.3083 56.2144 18.4029 56.7256 18.3942C57.3019 18.399 57.8721 18.2766 58.3957 18.0358C58.8892 17.8108 59.3264 17.4787 59.6755 17.0636L59.7596 16.962L58.9166 16.119L58.8194 16.2366Z" fill="black"/>
<path d="M68.8575 10.8345L66.1819 17.9081L63.4932 14.0644L66.1369 11.0318V10.8345H64.6859L61.6388 14.2777V10.8345H60.478V18.2345H61.6388V16.0769L62.6153 14.9887L64.9166 18.2345H67.3833L68.0827 16.3483H70.886L71.5752 18.2345H72.9057L70.0981 10.8345H68.8575ZM70.4536 15.1875H68.4962L69.4742 12.4756L70.4536 15.1875Z" fill="black"/>
<path d="M82.4605 27.1932C79.8296 27.1932 77.7469 29.1733 77.7469 31.9116C77.7422 32.5325 77.8609 33.1482 78.0962 33.7228C78.3314 34.2974 78.6784 34.8194 79.117 35.2585C79.5557 35.6975 80.0772 36.0449 80.6512 36.2804C81.2252 36.5158 81.8402 36.6347 82.4605 36.63C85.0914 36.63 87.1741 34.6498 87.1741 31.9116C87.1741 29.0587 85.0914 27.1932 82.4605 27.1932ZM82.4605 34.6541C81.0363 34.6541 79.8296 33.4476 79.8296 31.8012C79.8296 30.1549 81.0363 28.9484 82.4605 28.9484C83.8848 28.9484 85.0914 30.046 85.0914 31.8012C85.0914 33.4476 83.8862 34.6541 82.4605 34.6541ZM72.2675 27.1932C69.6366 27.1932 67.554 29.1733 67.554 31.9116C67.5493 32.5325 67.668 33.1482 67.9032 33.7228C68.1384 34.2974 68.4854 34.8194 68.9241 35.2585C69.3627 35.6975 69.8842 36.0449 70.4582 36.2804C71.0322 36.5158 71.6472 36.6347 72.2675 36.63C74.8984 36.63 76.9797 34.6498 76.9797 31.9116C76.9839 29.0587 74.8984 27.1932 72.2675 27.1932ZM72.2675 34.6541C70.8419 34.6541 69.6366 33.4476 69.6366 31.8012C69.6366 30.1549 70.8419 28.9484 72.2675 28.9484C73.6932 28.9484 74.8984 30.046 74.8984 31.8012C74.8984 33.4476 73.6918 34.6541 72.2675 34.6541ZM60.1007 28.6217V30.6018H64.8143C64.7041 31.6994 64.266 32.582 63.7178 33.1251C63.0608 33.7842 61.9644 34.5522 60.1007 34.5522C57.142 34.5522 54.9491 32.2482 54.9491 29.285C54.9491 26.3219 57.2508 24.0193 60.1007 24.0193C61.6351 24.0193 62.8418 24.677 63.7178 25.445L65.1435 24.0193C63.9368 22.9217 62.4024 22.0391 60.2109 22.0391C56.2645 22.0391 52.8636 25.3318 52.8636 29.2808C52.8636 33.2298 56.2617 36.5225 60.2109 36.5225C62.4024 36.5225 63.9368 35.8648 65.2523 34.4377C66.5677 33.1209 67.0057 31.2553 67.0057 29.8296C67.0057 29.3911 67.0057 28.9512 66.8969 28.6231L60.1007 28.6217ZM109.862 30.1577C109.424 29.0601 108.327 27.1946 105.917 27.1946C103.506 27.1946 101.537 29.0601 101.537 31.913C101.537 34.5466 103.515 36.6314 106.14 36.6314C108.223 36.6314 109.531 35.3146 109.976 34.5466L108.442 33.449C107.894 34.217 107.235 34.7658 106.14 34.7658C105.045 34.7658 104.387 34.3259 103.838 33.3387L110.085 30.7065L109.866 30.1577H109.862ZM103.503 31.6937C103.503 29.9385 104.928 28.9498 105.915 28.9498C106.683 28.9498 107.45 29.3897 107.669 29.9399L103.505 31.6923L103.503 31.6937ZM98.3519 36.1915H100.439V22.4719H98.3533L98.3519 36.1915ZM95.0696 28.1804C94.4063 27.4971 93.5005 27.1033 92.5489 27.0842C90.2472 27.0842 88.0544 29.1691 88.0544 31.8012C88.0458 32.3996 88.1554 32.9938 88.3769 33.5496C88.5984 34.1055 88.9274 34.6121 89.345 35.0403C89.7626 35.4684 90.2607 35.8098 90.8105 36.0448C91.3604 36.2797 91.9511 36.4036 92.5489 36.4093C93.0062 36.413 93.4587 36.3168 93.875 36.1275C94.2913 35.9382 94.6614 35.6603 94.9594 35.3132H95.0696V35.9765C95.0696 37.7318 94.0806 38.719 92.5489 38.719C91.3423 38.719 90.4663 37.8421 90.2473 37.0741L88.4938 37.8421C89.0406 39.0486 90.356 40.5846 92.6577 40.5846C95.0696 40.5846 97.0379 39.1589 97.0379 35.7573V27.4124H95.0696V28.1804ZM92.6535 34.6541C91.2293 34.6541 90.024 33.4476 90.024 31.8012C90.024 30.1549 91.2293 28.9484 92.6535 28.9484C94.0777 28.9484 95.1756 30.1563 95.1756 31.8012C95.1756 33.4462 94.0806 34.6541 92.6535 34.6541ZM119.398 22.4762H114.465V36.1957H116.546V31.0332H119.396C121.698 31.0332 123.891 29.3883 123.891 26.7547C123.891 24.1211 121.699 22.4762 119.398 22.4762ZM119.508 29.0587H116.546V24.3403H119.514C120.133 24.3398 120.729 24.5789 121.177 25.0077C121.624 25.4365 121.889 26.0219 121.916 26.6415C121.807 27.8494 120.927 29.0559 119.505 29.0559L119.508 29.0587ZM132.111 27.0786C130.577 27.0786 129.042 27.7363 128.496 29.1634L130.358 29.9314C130.797 29.1634 131.454 28.9413 132.222 28.9413C133.318 28.9413 134.304 29.6004 134.413 30.698V30.8069C134.085 30.5877 133.208 30.2581 132.332 30.2581C130.354 30.2581 128.385 31.3557 128.385 33.3302C128.385 35.1958 130.03 36.4022 131.784 36.4022C133.208 36.4022 133.866 35.7445 134.413 35.0869H134.523V36.183H136.501V30.9243C136.282 28.51 134.419 27.0842 132.121 27.0842L132.111 27.0786ZM131.892 34.6484C131.235 34.6484 130.249 34.3188 130.249 33.4419C130.249 32.3444 131.454 32.0148 132.441 32.0148C133.318 32.0148 133.756 32.2355 134.304 32.4547C134.085 33.7771 132.989 34.6541 131.892 34.6541V34.6484ZM143.401 27.4067L141.099 33.3316H140.99L138.578 27.4067H136.387L140.004 35.7516L137.921 40.3611H140.001L145.591 27.4138L143.401 27.4067ZM124.987 36.1901H127.07V22.4705H124.987V36.1901Z" fill="black"/>
<g clip-path="url(#clip0)">
<path d="M19.5197 9.42172C19.2826 9.7769 19.0454 10.2505 19.0454 10.724V37.7177C19.0454 38.1913 19.2826 38.6649 19.5197 38.9016L34.2233 24.2209L19.5197 9.42172Z" fill="#00D6FF"/>
<path d="M39.2031 19.13L21.6537 9.18502C20.9423 8.71144 20.1122 8.94823 19.5193 9.4218L34.2229 24.221L39.2031 19.13Z" fill="#00F076"/>
<path d="M45.4894 22.6818L39.3234 19.13L34.2245 24.2209L39.2048 29.1935L45.4894 25.6417C46.6752 25.0497 46.6752 23.3922 45.4894 22.6818Z" fill="#FFD000"/>
<path d="M19.5193 38.9017C19.9937 39.3753 20.8237 39.6121 21.6537 39.1385L39.2031 29.3119L34.2229 24.3394L19.5193 38.9017Z" fill="#FF3A44"/>
</g>
<defs>
<clipPath id="clip0">
<rect width="27.2727" height="30.5455" fill="white" transform="translate(19.0454 8.94821)"/>
</clipPath>
</defs>
</svg>
