<svg width="148" height="45" viewBox="0 0 148 45" fill="none" xmlns="http://www.w3.org/2000/svg">
<rect y="0.858643" width="148" height="44" rx="22" fill="black"/>
<path d="M70.1439 13.2C69.8779 13.5911 69.4043 13.7813 68.8417 13.7813C68.452 13.7813 68.1408 13.6789 67.9359 13.4767C67.8258 13.3611 67.7407 13.2241 67.6858 13.0743C67.6309 12.9244 67.6074 12.7648 67.6167 12.6055V10.5878H66.5527V12.7518C66.5527 13.3876 66.7535 13.901 67.1778 14.28C67.6086 14.6599 68.1679 14.8615 68.742 14.844C69.2635 14.8616 69.7733 14.6869 70.1745 14.3532L70.1439 14.5647V17.3711H71.3409V10.5878H70.1439V13.2Z" fill="white"/>
<path d="M73.2046 15.3774L73.2033 14.5195V10.5878H72.1392V17.3711H73.2325L76.4021 12.3169L76.3954 13.1548V17.3711H77.4595V10.5878H76.2358L73.2046 15.3774Z" fill="white"/>
<path d="M82.303 13.8371C82.4958 13.7157 82.6612 13.5553 82.7885 13.3663C82.9671 13.1009 83.0599 12.787 83.0545 12.4672C83.0593 12.2102 83.0073 11.9554 82.9023 11.7209C82.7972 11.4863 82.6416 11.2779 82.4466 11.1105C82.057 10.7608 81.5481 10.5738 81.0248 10.5878H78.5229V17.3711H81.1538C81.7052 17.3801 82.2391 17.1779 82.6461 16.8059C82.8481 16.6272 83.0088 16.4068 83.1172 16.1599C83.2256 15.9131 83.2791 15.6456 83.2739 15.376C83.2789 15.0091 83.1593 14.6514 82.9348 14.3612C82.7677 14.1399 82.5514 13.9604 82.303 13.8371ZM81.6912 13.0976C81.6077 13.1905 81.5049 13.264 81.39 13.313C81.2751 13.3619 81.1509 13.3851 81.0261 13.3809H79.587V11.6518H81.062C81.1804 11.6436 81.2992 11.6619 81.4096 11.7054C81.5201 11.7489 81.6194 11.8165 81.7005 11.9032C81.8555 12.063 81.9432 12.2764 81.9452 12.4991C81.9423 12.7242 81.8511 12.9392 81.6912 13.0976ZM81.8787 16.0091C81.7932 16.1069 81.687 16.1843 81.5678 16.2359C81.4486 16.2874 81.3195 16.3117 81.1897 16.3071H79.587V14.445H81.1538C81.2796 14.4387 81.4054 14.4576 81.5238 14.5006C81.6422 14.5436 81.7508 14.6097 81.8433 14.6952C81.9359 14.7806 82.0104 14.8837 82.0626 14.9983C82.1148 15.1129 82.1436 15.2368 82.1474 15.3627C82.1445 15.6048 82.0482 15.8364 81.8787 16.0091Z" fill="white"/>
<path d="M85.9236 10.5878L83.3499 17.3711H84.5696L85.2107 15.642H87.7804L88.4121 17.3711H89.6331L87.0595 10.5878H85.9236ZM87.3867 14.578H85.5911L86.4915 12.0921L87.3867 14.578Z" fill="white"/>
<path d="M91.1469 15.3774L91.1576 14.5195V10.5878H90.0935V17.3711H91.1629L94.3444 12.3169L94.3497 13.1548V17.3711H95.4138V10.5878H94.1662L91.1469 15.3774Z" fill="white"/>
<path d="M92.7109 10.3217C92.8775 10.3204 93.0421 10.2858 93.1951 10.2199C93.3481 10.154 93.4865 10.0583 93.6019 9.9382C93.7174 9.81813 93.8077 9.67619 93.8676 9.52072C93.9275 9.36526 93.9556 9.19939 93.9505 9.03288V8.85864H93.0194V9.03288C93.0306 9.13265 93.0025 9.23285 92.941 9.3122C92.9119 9.34844 92.8748 9.37733 92.8325 9.39651C92.7902 9.41569 92.744 9.42463 92.6976 9.42259C92.6498 9.42528 92.6021 9.41696 92.558 9.39828C92.514 9.3796 92.4748 9.35106 92.4435 9.31486C92.3779 9.23622 92.3459 9.13493 92.3544 9.03288V8.85864H91.4234V9.03288C91.418 9.20457 91.4497 9.3754 91.5163 9.53376C91.5829 9.69211 91.6827 9.83429 91.8091 9.95063C92.0486 10.189 92.373 10.3225 92.7109 10.3217Z" fill="white"/>
<path d="M95.9472 11.6518H97.8093V17.3711H99.0064V11.6518H100.735V10.5878H95.9472V11.6518Z" fill="white"/>
<path d="M101.399 17.3711H105.522V16.3071H102.596V14.445H105.256V13.3809H102.596V11.6518H105.522V10.5878H101.399V17.3711Z" fill="white"/>
<path d="M112.847 14.3559C112.679 14.1368 112.463 13.9593 112.215 13.8371C112.408 13.7153 112.573 13.555 112.701 13.3663C112.879 13.1006 112.971 12.7869 112.967 12.4671C112.971 12.2102 112.919 11.9554 112.814 11.7208C112.709 11.4863 112.554 11.2779 112.359 11.1105C111.969 10.7609 111.46 10.5739 110.937 10.5878H108.45V17.3711H111.066C111.615 17.3786 112.145 17.1764 112.55 16.8058C112.754 16.6283 112.917 16.4084 113.026 16.1613C113.136 15.9143 113.191 15.6463 113.186 15.376C113.192 15.0073 113.073 14.6475 112.847 14.3559ZM111.603 13.0976C111.52 13.1903 111.417 13.2637 111.302 13.3126C111.187 13.3615 111.063 13.3848 110.938 13.3809H109.514V11.6518H110.977C111.095 11.6436 111.214 11.6619 111.324 11.7054C111.435 11.7489 111.534 11.8165 111.615 11.9032C111.77 12.063 111.858 12.2764 111.86 12.4991C111.856 12.7246 111.764 12.9396 111.603 13.0976ZM111.791 16.0091C111.705 16.1069 111.599 16.1843 111.48 16.2358C111.361 16.2874 111.232 16.3117 111.102 16.3071H109.514V14.445H111.066C111.192 14.4385 111.317 14.4573 111.436 14.5002C111.554 14.5431 111.663 14.6093 111.755 14.6948C111.848 14.7803 111.922 14.8835 111.974 14.9982C112.026 15.1129 112.055 15.2368 112.058 15.3627C112.055 15.6045 111.959 15.8359 111.791 16.0091Z" fill="white"/>
<path d="M53.4595 15.5396C52.9275 16.1501 52.2983 16.4467 51.5442 16.4467C51.2269 16.4534 50.9115 16.3962 50.6167 16.2785C50.322 16.1608 50.0539 15.9851 49.8284 15.7617C49.3655 15.3068 49.1314 14.6977 49.1314 13.9608C49.1314 13.2239 49.3655 12.6134 49.8284 12.1599C50.0539 11.9365 50.322 11.7608 50.6167 11.6431C50.9115 11.5254 51.2269 11.4682 51.5442 11.4749C52.2784 11.4749 52.8397 11.7303 53.264 12.2583L53.3544 12.3714L54.1365 11.6145L54.05 11.5188C53.7423 11.1562 53.3569 10.8675 52.9225 10.6741C52.488 10.4807 52.0156 10.3875 51.5402 10.4015C51.0716 10.3935 50.6063 10.4802 50.172 10.6564C49.7378 10.8327 49.3436 11.0947 49.0131 11.427C48.6825 11.7592 48.4225 12.1548 48.2486 12.59C48.0747 13.0251 47.9904 13.4909 48.0009 13.9595C47.9904 14.428 48.0747 14.8938 48.2486 15.329C48.4225 15.7641 48.6825 16.1597 49.0131 16.4919C49.3436 16.8242 49.7378 17.0863 50.172 17.2625C50.6063 17.4387 51.0716 17.5254 51.5402 17.5174C52.0685 17.5218 52.5912 17.4097 53.0711 17.1889C53.5235 16.9827 53.9242 16.6782 54.2442 16.2977L54.3214 16.2046L53.5486 15.4319L53.4595 15.5396Z" fill="white"/>
<path d="M62.6611 10.5878L60.2084 17.0719L57.7438 13.5485L60.1672 10.7687V10.5878H58.8371L56.0439 13.744V10.5878H54.9799V17.3711H56.0439V15.3933L56.9391 14.3958L59.0486 17.3711H61.3097L61.9508 15.642H64.5205L65.1523 17.3711H66.372L63.7983 10.5878H62.6611ZM64.1241 14.578H62.3299L63.2263 12.0921L64.1241 14.578Z" fill="white"/>
<path d="M75.1305 25.5832C72.7189 25.5832 70.8097 27.3983 70.8097 29.9084C70.8054 30.4776 70.9142 31.0419 71.1299 31.5686C71.3455 32.0953 71.6636 32.5739 72.0657 32.9764C72.4677 33.3789 72.9458 33.6973 73.4719 33.9131C73.9981 34.129 74.5619 34.2379 75.1305 34.2336C77.5422 34.2336 79.4513 32.4184 79.4513 29.9084C79.4513 27.2933 77.5422 25.5832 75.1305 25.5832ZM75.1305 32.4223C73.825 32.4223 72.7189 31.3164 72.7189 29.8072C72.7189 28.2981 73.825 27.1922 75.1305 27.1922C76.4361 27.1922 77.5422 28.1983 77.5422 29.8072C77.5422 31.3164 76.4374 32.4223 75.1305 32.4223ZM65.787 25.5832C63.3753 25.5832 61.4662 27.3983 61.4662 29.9084C61.4619 30.4776 61.5707 31.0419 61.7863 31.5686C62.0019 32.0953 62.32 32.5739 62.7221 32.9764C63.1242 33.3789 63.6022 33.6973 64.1284 33.9131C64.6546 34.129 65.2183 34.2379 65.787 34.2336C68.1986 34.2336 70.1064 32.4184 70.1064 29.9084C70.1103 27.2933 68.1986 25.5832 65.787 25.5832ZM65.787 32.4223C64.4801 32.4223 63.3753 31.3164 63.3753 29.8072C63.3753 28.2981 64.4801 27.1922 65.787 27.1922C67.0938 27.1922 68.1986 28.1983 68.1986 29.8072C68.1986 31.3164 67.0925 32.4223 65.787 32.4223ZM54.634 26.8927V28.7078H58.9548C58.8538 29.7139 58.4522 30.5229 57.9497 31.0208C57.3474 31.625 56.3424 32.329 54.634 32.329C51.9219 32.329 49.9117 30.2169 49.9117 27.5007C49.9117 24.7845 52.0216 22.6738 54.634 22.6738C56.0406 22.6738 57.1467 23.2767 57.9497 23.9807L59.2566 22.6738C58.1505 21.6677 56.7439 20.8586 54.735 20.8586C51.1175 20.8586 48 23.8769 48 27.4968C48 31.1167 51.115 34.135 54.735 34.135C56.7439 34.135 58.1505 33.5321 59.3563 32.224C60.5621 31.0169 60.9636 29.3068 60.9636 27.9999C60.9636 27.598 60.9636 27.1947 60.8639 26.894L54.634 26.8927ZM100.248 28.3007C99.8468 27.2946 98.8417 25.5845 96.6321 25.5845C94.4225 25.5845 92.617 27.2946 92.617 29.9097C92.617 32.3238 94.4303 34.2349 96.8368 34.2349C98.7459 34.2349 99.9452 33.0278 100.353 32.3238L98.9466 31.3177C98.4441 32.0217 97.8405 32.5248 96.8368 32.5248C95.833 32.5248 95.2294 32.1215 94.7269 31.2166L100.453 28.8037L100.252 28.3007H100.248ZM94.4199 29.7087C94.4199 28.0997 95.7255 27.1935 96.6308 27.1935C97.3341 27.1935 98.0374 27.5967 98.2382 28.101L94.4212 29.7074L94.4199 29.7087ZM89.6976 33.8316H91.6106V21.2554H89.6989L89.6976 33.8316ZM86.6889 26.4881C86.0808 25.8618 85.2505 25.5008 84.3782 25.4833C82.2684 25.4833 80.2582 27.3944 80.2582 29.8072C80.2503 30.3558 80.3508 30.9004 80.5538 31.4099C80.7569 31.9195 81.0585 32.3838 81.4413 32.7763C81.8241 33.1689 82.2807 33.4818 82.7847 33.6971C83.2887 33.9125 83.8303 34.0261 84.3782 34.0313C84.7974 34.0347 85.2122 33.9465 85.5938 33.773C85.9754 33.5994 86.3146 33.3447 86.5878 33.0265H86.6889V33.6346C86.6889 35.2436 85.7822 36.1485 84.3782 36.1485C83.2721 36.1485 82.4691 35.3447 82.2684 34.6407L80.661 35.3447C81.1623 36.4506 82.3681 37.8586 84.478 37.8586C86.6889 37.8586 88.4931 36.5518 88.4931 33.4336V25.7841H86.6889V26.4881ZM84.4741 32.4223C83.1685 32.4223 82.0637 31.3164 82.0637 29.8072C82.0637 28.2981 83.1685 27.1922 84.4741 27.1922C85.7796 27.1922 86.786 28.2994 86.786 29.8072C86.786 31.3151 85.7822 32.4223 84.4741 32.4223ZM108.99 21.2593H104.468V33.8355H106.376V29.1032H108.988C111.098 29.1032 113.108 27.5954 113.108 25.1812C113.108 22.7671 111.099 21.2593 108.99 21.2593ZM109.091 27.2933H106.376V22.9681H109.096C109.664 22.9676 110.21 23.1867 110.62 23.5798C111.031 23.9729 111.273 24.5095 111.298 25.0775C111.198 26.1848 110.391 27.2907 109.088 27.2907L109.091 27.2933ZM120.644 25.4782C119.237 25.4782 117.831 26.081 117.329 27.3892L119.036 28.0932C119.439 27.3892 120.042 27.1857 120.745 27.1857C121.75 27.1857 122.654 27.7899 122.754 28.796V28.8958C122.453 28.6948 121.649 28.3927 120.846 28.3927C119.033 28.3927 117.228 29.3988 117.228 31.2088C117.228 32.9189 118.736 34.0248 120.343 34.0248C121.649 34.0248 122.252 33.4219 122.754 32.8191H122.855V33.8239H124.668V29.0034C124.467 26.7902 122.759 25.4833 120.653 25.4833L120.644 25.4782ZM120.443 32.4171C119.841 32.4171 118.937 32.1151 118.937 31.3112C118.937 30.3051 120.042 30.003 120.946 30.003C121.75 30.003 122.151 30.2053 122.654 30.4062C122.453 31.6185 121.448 32.4223 120.443 32.4223V32.4171ZM130.992 25.7789L128.883 31.2101H128.783L126.572 25.7789H124.563L127.879 33.4284L125.97 37.6538H127.876L133 25.7854L130.992 25.7789ZM114.113 33.8304H116.023V21.2541H114.113V33.8304Z" fill="white"/>
<g clip-path="url(#clip0)">
<path d="M17.4348 9.29272C17.2174 9.61831 17 10.0524 17 10.4865V35.2307C17 35.6648 17.2174 36.0989 17.4348 36.316L30.913 22.8586L17.4348 9.29272Z" fill="#00D6FF"/>
<path d="M35.478 18.192L19.3911 9.07574C18.7389 8.64163 17.978 8.85868 17.4345 9.29279L30.9128 22.8587L35.478 18.192Z" fill="#00F076"/>
<path d="M41.2403 21.4478L35.5882 18.192L30.9142 22.8587L35.4795 27.4168L41.2403 24.161C42.3273 23.6184 42.3273 22.099 41.2403 21.4478Z" fill="#FFD000"/>
<path d="M17.4345 36.316C17.8693 36.7501 18.6302 36.9672 19.3911 36.5331L35.478 27.5253L30.9128 22.9672L17.4345 36.316Z" fill="#FF3A44"/>
</g>
<defs>
<clipPath id="clip0">
<rect width="25" height="28" fill="white" transform="translate(17 8.85864)"/>
</clipPath>
</defs>
</svg>
